# xmcd
#
# Track frame offsets:
#	150
#	4952
#	16686
#	33513
#	48810
#	67059
#	86916
#	109367
#	131820
#	152987
#	171134
#	184969
#	207362
#	226883
#	246218
#	264862
#	287132
#
# Disc length: 4051 seconds
#
# Revision: 2
# Processed by: cddbd v1.5.2PL0 Copyright (c) Steve Scherf et al.
# Submitted via: audiograbber 1.83.01
#
DISCID=f10fd111
DTITLE=Hui Buh - 002 Entführung in die  Geisterwelt
DYEAR=2008
DGENRE=Kinder
TTITLE0=Titelmelodie
TTITLE1=Schrecklich schlaflose Nacht
TTITLE2=Ein altes Erbstück
TTITLE3=Der fahrende Händler
TTITLE4=Ein verspuktes Bett
TTITLE5=Spurlos verschwunden
TTITLE6=Böses Erwachen
TTITLE7=Der Schauermarkt in der Geisterwelt
TTITLE8=Verdammt gruseliges Geheul
TTITLE9=Die siebenbeinige Tüpfelspinne
TTITLE10=Fliegender Gespensterkopf
TTITLE11=Gespenstische Labertasche
TTITLE12=Ein verhängnisvolles Missverständnis
TTITLE13=Informationsbeschaffungsservice
TTITLE14=Die Schreck-Weck-Kammer
TTITLE15=Flucht aus der Geisterwelt
TTITLE16=Ein ganz kleines Kompliment
EXTD=
EXTT0=
EXTT1=
EXTT2=
EXTT3=
EXTT4=
EXTT5=
EXTT6=
EXTT7=
EXTT8=
EXTT9=
EXTT10=
EXTT11=
EXTT12=
EXTT13=
EXTT14=
EXTT15=
EXTT16=
PLAYORDER=
